# xmcd
#
# Track frame offsets:
#	183
#	12285
#	26773
#	40603
#	55868
#	69193
#	84998
#	100108
#	113575
#	127740
#	143640
#	157040
#	173195
#	186330
#	200925
#	216873
#
# Disc length: 3064 seconds
#
# Revision: 3
# Processed by: cddbd v1.5.2PL0 Copyright (c) Steve Scherf et al.
# Submitted via: audiograbber 1.83.01
#
DISCID=d30bf610
DTITLE=Middle Of The Road - The Original Hits
DYEAR=1990
DGENRE=Pop
TTITLE0=Yellow Boomerang
TTITLE1=The Talk Of All The USA
TTITLE2=Samson And Delilah
TTITLE3=Try A Little Understanding
TTITLE4=Kailakee Kailakoo
TTITLE5=Louise (My Little Ship)
TTITLE6=Honey No
TTITLE7=Chirpy Chirpy Cheep Cheep
TTITLE8=Soley Soley
TTITLE9=Medicine Woman
TTITLE10=Sacramento (A Wonderful Town)
TTITLE11=Love Sweet Love
TTITLE12=Queen Bee
TTITLE13=Tweedle Dee, Tweedle Dum
TTITLE14=I Can't Tell The Bottom From The Top
TTITLE15=Yellow River
EXTD=
EXTT0=
EXTT1=
EXTT2=
EXTT3=
EXTT4=
EXTT5=
EXTT6=
EXTT7=
EXTT8=
EXTT9=
EXTT10=
EXTT11=
EXTT12=
EXTT13=
EXTT14=
EXTT15=
PLAYORDER=
